<?xml version="1.0" encoding="UTF-8" standalone="no"?>
<!DOCTYPE svg PUBLIC "-//W3C//DTD SVG 20010904//EN"
              "http://www.w3.org/TR/2001/REC-SVG-20010904/DTD/svg10.dtd">

<svg xmlns="http://www.w3.org/2000/svg"
     width="9.09722in" height="9.09722in"
     viewBox="0 0 655 655">
  <path id="Selection #1"
        fill="none" stroke="black" stroke-width="1"
        d="M 396.00,340.00
           C 396.00,340.00 470.00,340.00 470.00,340.00
             501.12,340.05 520.40,370.72 508.91,399.00
             503.51,412.29 491.96,421.42 478.00,424.09
             474.65,424.86 467.29,425.78 464.33,424.09
             461.94,422.53 459.97,418.43 458.58,416.00
             455.00,409.76 448.87,399.57 447.00,393.00
             447.00,393.00 466.00,393.00 466.00,393.00
             480.10,392.80 484.20,379.54 473.96,373.23
             468.12,369.62 449.54,371.02 442.00,371.00
             439.72,371.00 436.35,371.22 434.39,369.98
             431.19,367.95 428.73,361.57 428.00,358.00
             428.00,358.00 461.00,358.00 461.00,358.00
             469.45,358.00 476.67,357.44 483.98,362.80
             496.47,371.99 496.05,392.17 483.98,401.61
             479.35,405.24 474.68,405.87 469.00,406.00
             470.15,407.68 471.14,409.60 473.21,410.31
             479.26,412.39 489.59,403.45 492.79,398.99
             501.46,386.93 500.28,372.70 489.91,362.04
             480.00,351.86 470.81,353.00 458.00,353.00
             458.00,353.00 426.00,353.00 426.00,353.00
             421.79,353.00 406.18,353.73 403.38,351.98
             400.50,350.18 397.37,343.17 396.00,340.00 Z
           M 385.00,358.00
           C 385.00,358.00 410.00,358.00 410.00,358.00
             410.00,358.00 420.62,359.02 420.62,359.02
             420.62,359.02 428.00,371.00 428.00,371.00
             428.00,371.00 407.00,371.00 407.00,371.00
             412.48,376.60 416.56,375.00 424.00,375.00
             432.15,375.00 453.38,374.12 460.00,376.00
             457.51,382.71 458.28,382.36 460.00,389.00
             460.00,389.00 417.00,389.00 417.00,389.00
             424.23,397.01 433.07,390.53 439.61,393.57
             442.53,394.93 446.04,402.95 447.00,406.00
             447.00,406.00 419.00,407.00 419.00,407.00
             409.88,406.98 411.30,406.86 403.70,393.00
             403.70,393.00 385.00,358.00 385.00,358.00 Z" />
</svg>
