<?xml version="1.0" encoding="UTF-8" standalone="no"?>
<!DOCTYPE svg PUBLIC "-//W3C//DTD SVG 20010904//EN"
              "http://www.w3.org/TR/2001/REC-SVG-20010904/DTD/svg10.dtd">

<svg xmlns="http://www.w3.org/2000/svg"
     width="9.09722in" height="9.09722in"
     viewBox="0 0 655 655">
  <path id="Texas"
        fill="white" stroke="white" stroke-width="1"
        d="M 181.00,13.00
           C 181.00,13.00 298.00,13.00 298.00,13.00
             298.00,13.00 324.00,13.00 324.00,13.00
             324.00,13.00 331.40,14.02 331.40,14.02
             331.40,14.02 333.00,22.00 333.00,22.00
             333.00,22.00 333.00,94.00 333.00,94.00
             333.00,94.00 333.60,115.96 333.60,115.96
             333.60,115.96 337.00,120.00 337.00,120.00
             339.12,135.26 352.17,129.78 369.00,132.00
             370.25,136.43 374.28,138.85 378.01,141.16
             380.72,142.83 384.13,145.64 387.00,146.49
             389.90,147.35 403.98,146.99 408.00,147.00
             426.72,147.03 418.29,154.97 435.00,155.00
             435.00,155.00 457.00,155.00 457.00,155.00
             466.63,155.02 464.10,156.21 470.00,156.94
             470.00,156.94 488.00,156.94 488.00,156.94
             497.55,157.01 508.53,160.17 510.99,160.01
             518.17,159.55 523.59,153.26 529.00,151.72
             533.12,150.55 549.66,150.99 555.00,151.00
             566.14,151.02 562.50,152.13 571.00,156.32
             571.00,156.32 580.00,159.33 580.00,159.33
             580.00,159.33 589.00,161.57 589.00,161.57
             589.00,161.57 600.00,165.66 600.00,165.66
             600.00,165.66 618.00,167.00 618.00,167.00
             618.00,167.00 619.26,190.00 619.26,190.00
             619.26,190.00 620.00,208.00 620.00,208.00
             620.00,208.00 620.00,222.00 620.00,222.00
             620.03,239.12 625.78,240.63 626.00,259.00
             626.09,266.79 625.64,270.69 629.79,277.83
             629.79,277.83 645.69,297.09 645.69,297.09
             647.36,300.31 647.05,306.32 647.00,310.00
             647.00,310.00 645.97,319.17 645.97,319.17
             645.97,319.17 645.97,337.00 645.97,337.00
             645.93,348.88 642.03,340.48 642.00,354.00
             642.00,354.00 642.00,385.00 642.00,385.00
             642.00,388.42 642.49,394.94 640.69,397.75
             638.02,401.90 632.02,401.14 628.00,400.00
             625.52,402.94 620.94,403.31 613.86,411.58
             610.48,415.52 611.41,416.00 609.26,419.72
             606.42,424.62 600.65,432.90 595.00,434.00
             592.44,438.76 589.77,438.99 586.33,442.58
             579.72,449.46 568.64,464.21 559.00,465.00
             556.12,469.80 551.58,471.16 547.17,474.12
             544.98,475.59 540.95,479.11 539.00,481.00
             539.00,481.00 530.04,485.05 530.04,485.05
             530.04,485.05 521.02,488.18 521.02,488.18
             521.02,488.18 511.49,498.53 511.49,498.53
             511.49,498.53 504.70,503.55 504.70,503.55
             504.70,503.55 498.98,515.09 498.98,515.09
             498.98,515.09 496.98,527.83 496.98,527.83
             496.98,527.83 485.85,543.49 485.85,543.49
             485.85,543.49 479.51,550.30 479.51,550.30
             479.51,550.30 476.00,561.00 476.00,561.00
             481.90,568.01 480.99,572.49 481.00,581.00
             481.01,586.87 481.80,593.32 483.52,598.96
             483.52,598.96 485.64,604.88 485.64,604.88
             486.26,607.84 487.79,620.49 487.54,622.96
             487.54,622.96 486.00,629.00 486.00,629.00
             481.59,632.08 475.36,634.10 470.01,632.18
             470.01,632.18 462.83,628.41 462.83,628.41
             459.40,627.11 455.62,627.03 452.00,627.00
             449.17,618.05 435.51,620.01 428.00,620.00
             417.84,619.98 419.91,618.13 412.00,617.90
             412.00,617.90 395.00,617.90 395.00,617.90
             395.00,617.90 382.00,614.00 382.00,614.00
             379.15,605.06 370.31,593.00 364.00,586.00
             365.36,580.40 366.37,565.57 363.00,561.00
             362.44,555.76 356.73,548.63 353.00,545.00
             351.93,540.22 346.01,534.75 342.79,530.91
             342.79,530.91 325.10,506.00 325.10,506.00
             322.06,501.50 318.47,497.54 318.00,492.00
             318.00,492.00 302.00,472.00 302.00,472.00
             301.63,469.28 300.62,467.52 299.63,465.00
             293.71,449.92 294.90,455.72 287.09,443.83
             284.25,439.51 284.66,435.71 279.00,435.00
             279.00,435.00 275.00,430.00 275.00,430.00
             273.30,424.86 267.26,423.06 263.00,420.14
             263.00,420.14 252.83,413.37 252.83,413.37
             242.89,408.90 229.76,409.93 219.00,410.00
             211.54,410.05 205.75,413.27 204.00,421.00
             201.15,423.57 197.82,427.28 196.72,431.04
             195.15,436.40 197.83,444.00 190.00,445.00
             187.27,454.40 182.87,453.01 178.09,455.26
             176.09,456.21 175.18,457.24 172.83,457.75
             169.05,458.56 153.48,458.32 150.09,456.87
             145.76,455.02 141.66,450.09 138.00,447.04
             133.16,443.00 132.08,443.37 128.26,440.80
             128.26,440.80 122.87,435.84 122.87,435.84
             116.45,430.38 109.32,428.29 109.00,419.00
             104.97,418.08 101.15,409.92 100.44,406.00
             100.44,406.00 99.49,391.00 99.49,391.00
             98.96,387.53 91.33,369.28 89.40,366.45
             85.95,361.40 76.74,355.93 75.00,351.00
             65.36,350.23 66.94,344.07 59.00,344.00
             57.98,342.12 49.39,331.79 47.73,330.55
             45.21,328.65 42.60,328.87 40.57,327.18
             38.52,325.47 38.09,322.70 36.75,320.51
             36.75,320.51 30.00,311.80 30.00,311.80
             26.71,307.73 21.98,304.24 21.00,299.00
             15.95,295.65 10.21,288.13 10.00,282.00
             6.78,279.12 8.31,274.85 9.00,271.00
             9.00,271.00 24.00,269.00 24.00,269.00
             24.00,269.00 181.00,269.00 181.00,269.00
             181.00,269.00 181.00,13.00 181.00,13.00 Z
           M 323.00,22.00
           C 323.00,22.00 190.00,22.00 190.00,22.00
             190.00,22.00 190.00,218.00 190.00,218.00
             190.00,218.00 190.00,270.00 190.00,270.00
             189.85,278.15 187.22,277.99 180.00,278.00
             180.00,278.00 22.00,278.00 22.00,278.00
             22.00,278.00 23.11,282.37 23.11,282.37
             23.11,282.37 36.00,295.00 36.00,295.00
             36.75,300.29 41.43,302.97 46.00,305.00
             45.71,310.38 46.69,311.58 52.00,312.00
             53.15,319.11 55.92,318.36 60.23,323.13
             60.23,323.13 65.54,330.27 65.54,330.27
             67.39,331.92 73.46,333.52 76.04,334.69
             76.04,334.69 87.00,341.00 87.00,341.00
             87.00,341.00 86.00,344.00 86.00,344.00
             93.87,348.01 92.13,348.71 96.59,355.58
             102.54,364.72 108.87,375.90 109.00,387.00
             109.15,400.39 110.10,401.58 116.67,413.27
             117.61,414.95 118.29,416.88 119.55,418.33
             122.05,421.21 125.63,422.49 128.71,424.50
             132.79,427.17 134.23,429.42 136.42,431.08
             136.42,431.08 142.72,434.77 142.72,434.77
             146.85,437.63 153.69,444.87 158.00,446.41
             160.20,447.19 165.49,447.04 168.00,447.00
             180.04,446.77 172.12,440.24 183.00,437.00
             183.00,437.00 187.00,432.00 187.00,432.00
             187.01,420.06 189.28,419.62 195.70,410.00
             197.97,406.60 198.90,403.60 203.02,402.03
             205.94,400.91 209.89,401.00 213.00,401.00
             213.00,401.00 244.00,401.00 244.00,401.00
             249.47,401.01 254.79,401.47 259.91,403.60
             264.43,405.48 266.84,408.33 272.00,409.00
             276.39,415.55 279.28,414.99 284.91,418.21
             284.91,418.21 292.00,423.00 292.00,423.00
             291.91,434.65 306.74,446.29 306.00,456.00
             314.19,463.18 311.77,464.18 316.52,471.00
             316.52,471.00 327.62,485.17 327.62,485.17
             330.85,489.85 331.84,494.89 337.00,498.00
             337.35,502.83 340.76,506.19 343.49,509.99
             348.91,517.53 349.76,519.73 356.39,527.17
             360.20,531.44 372.14,547.95 373.51,553.00
             374.72,557.47 374.13,572.35 373.00,577.00
             375.77,580.07 376.77,581.84 377.00,586.00
             386.90,591.37 387.94,602.74 394.13,605.87
             399.90,608.78 412.29,607.99 419.00,608.00
             430.50,608.02 427.60,610.81 435.00,611.81
             442.84,612.88 449.50,610.81 459.00,613.25
             466.64,615.21 468.78,619.28 478.00,619.00
             466.86,599.49 476.21,592.22 467.88,568.00
             466.61,564.32 468.08,560.48 466.00,558.00
             469.90,550.61 466.55,546.65 469.02,542.17
             470.16,540.10 474.09,536.95 475.94,534.99
             479.66,531.05 479.34,530.10 481.53,527.46
             484.24,524.20 485.71,524.66 486.00,520.00
             488.41,517.63 487.07,511.10 488.51,507.09
             490.09,502.70 493.70,496.52 497.29,493.57
             501.94,489.74 507.29,491.72 507.00,484.00
             507.00,484.00 514.09,479.51 514.09,479.51
             514.09,479.51 524.00,475.11 524.00,475.11
             524.00,475.11 538.26,465.08 538.26,465.08
             538.26,465.08 545.54,461.46 545.54,461.46
             545.54,461.46 553.04,456.50 553.04,456.50
             553.04,456.50 559.29,452.20 559.29,452.20
             564.19,447.78 564.75,444.13 572.00,442.00
             577.46,430.90 588.31,426.57 595.62,417.57
             600.85,411.13 604.06,401.51 610.05,396.48
             618.37,389.50 628.02,394.50 632.01,388.47
             633.24,386.60 633.00,383.20 633.00,381.00
             633.00,381.00 634.00,335.00 634.00,335.00
             634.00,335.00 637.01,335.00 637.01,335.00
             637.30,328.53 639.56,312.51 637.01,307.01
             636.02,304.85 626.97,294.30 624.88,292.03
             622.77,289.75 620.16,288.03 619.31,284.91
             619.31,284.91 618.70,279.00 618.70,279.00
             618.70,279.00 616.94,271.00 616.94,271.00
             616.94,271.00 616.94,259.00 616.94,259.00
             615.61,250.12 611.02,243.34 611.00,231.00
             611.00,231.00 611.00,217.00 611.00,217.00
             610.85,208.18 608.75,212.38 609.00,197.00
             609.12,189.94 611.00,190.16 611.00,176.00
             611.00,176.00 596.46,174.29 596.46,174.29
             596.46,174.29 589.91,171.41 589.91,171.41
             589.91,171.41 581.00,170.70 581.00,170.70
             581.00,170.70 570.00,169.00 570.00,169.00
             567.80,166.17 566.45,166.33 563.00,166.00
             563.00,166.00 564.00,163.00 564.00,163.00
             550.70,159.10 540.99,159.70 528.05,164.76
             523.70,166.46 523.95,168.10 520.87,169.70
             517.95,171.22 510.40,172.01 507.00,171.99
             497.68,171.95 495.12,167.78 489.91,167.12
             489.91,167.12 476.00,166.50 476.00,166.50
             473.42,166.50 472.95,166.90 470.00,166.50
             470.00,166.50 459.00,165.74 459.00,165.74
             454.46,165.00 455.52,164.11 449.00,164.00
             449.00,164.00 427.00,164.00 427.00,164.00
             409.30,163.97 416.95,156.03 401.00,156.00
             395.94,155.99 380.82,156.74 377.00,155.02
             377.00,155.02 364.04,146.67 364.04,146.67
             361.68,144.71 359.82,142.08 356.91,140.89
             352.41,139.05 343.69,141.16 339.13,139.27
             339.13,139.27 328.89,131.73 328.89,131.73
             327.02,129.43 327.57,128.17 325.00,126.00
             325.00,126.00 326.00,124.00 326.00,124.00
             326.00,124.00 323.72,120.89 323.72,120.89
             323.72,120.89 323.00,96.00 323.00,96.00
             323.00,96.00 323.00,22.00 323.00,22.00 Z
           M 342.00,131.00
           C 342.00,131.00 341.00,131.00 341.00,131.00
             341.00,131.00 342.00,132.00 342.00,132.00
             342.00,132.00 342.00,131.00 342.00,131.00 Z
           M 375.00,141.00
           C 375.00,141.00 374.00,141.00 374.00,141.00
             374.00,141.00 375.00,142.00 375.00,142.00
             375.00,142.00 375.00,141.00 375.00,141.00 Z
           M 374.00,142.00
           C 374.00,142.00 373.00,142.00 373.00,142.00
             373.00,142.00 374.00,143.00 374.00,143.00
             374.00,143.00 374.00,142.00 374.00,142.00 Z
           M 366.00,146.00
           C 366.00,146.00 365.00,146.00 365.00,146.00
             365.00,146.00 366.00,147.00 366.00,147.00
             366.00,147.00 366.00,146.00 366.00,146.00 Z
           M 526.00,157.00
           C 526.00,157.00 525.00,157.00 525.00,157.00
             525.00,157.00 526.00,158.00 526.00,158.00
             526.00,158.00 526.00,157.00 526.00,157.00 Z
           M 599.00,171.00
           C 599.00,171.00 598.00,171.00 598.00,171.00
             598.00,171.00 599.00,172.00 599.00,172.00
             599.00,172.00 599.00,171.00 599.00,171.00 Z
           M 29.00,290.00
           C 29.00,290.00 28.00,290.00 28.00,290.00
             28.00,290.00 29.00,291.00 29.00,291.00
             29.00,291.00 29.00,290.00 29.00,290.00 Z
           M 28.00,292.00
           C 28.00,292.00 27.00,292.00 27.00,292.00
             27.00,292.00 28.00,293.00 28.00,293.00
             28.00,293.00 28.00,292.00 28.00,292.00 Z
           M 31.00,292.00
           C 31.00,292.00 30.00,292.00 30.00,292.00
             30.00,292.00 31.00,293.00 31.00,293.00
             31.00,293.00 31.00,292.00 31.00,292.00 Z
           M 32.00,307.00
           C 32.00,307.00 31.00,307.00 31.00,307.00
             31.00,307.00 32.00,308.00 32.00,308.00
             32.00,308.00 32.00,307.00 32.00,307.00 Z
           M 31.00,309.00
           C 31.00,309.00 30.00,309.00 30.00,309.00
             30.00,309.00 31.00,310.00 31.00,310.00
             31.00,310.00 31.00,309.00 31.00,309.00 Z
           M 36.00,314.00
           C 36.00,314.00 35.00,314.00 35.00,314.00
             35.00,314.00 36.00,315.00 36.00,315.00
             36.00,315.00 36.00,314.00 36.00,314.00 Z
           M 39.00,318.00
           C 39.00,318.00 38.00,318.00 38.00,318.00
             38.00,318.00 39.00,319.00 39.00,319.00
             39.00,319.00 39.00,318.00 39.00,318.00 Z
           M 85.00,341.00
           C 85.00,341.00 84.00,341.00 84.00,341.00
             84.00,341.00 85.00,342.00 85.00,342.00
             85.00,342.00 85.00,341.00 85.00,341.00 Z
           M 71.00,345.00
           C 71.00,345.00 70.00,345.00 70.00,345.00
             70.00,345.00 71.00,346.00 71.00,346.00
             71.00,346.00 71.00,345.00 71.00,345.00 Z
           M 92.00,348.00
           C 92.00,348.00 91.00,348.00 91.00,348.00
             91.00,348.00 92.00,349.00 92.00,349.00
             92.00,349.00 92.00,348.00 92.00,348.00 Z
           M 84.00,354.00
           C 84.00,354.00 83.00,354.00 83.00,354.00
             83.00,354.00 84.00,355.00 84.00,355.00
             84.00,355.00 84.00,354.00 84.00,354.00 Z
           M 82.00,356.00
           C 82.00,356.00 81.00,356.00 81.00,356.00
             81.00,356.00 82.00,357.00 82.00,357.00
             82.00,357.00 82.00,356.00 82.00,356.00 Z
           M 97.00,366.00
           C 97.00,366.00 96.00,366.00 96.00,366.00
             96.00,366.00 97.00,367.00 97.00,367.00
             97.00,367.00 97.00,366.00 97.00,366.00 Z
           M 101.00,367.00
           C 101.00,367.00 100.00,367.00 100.00,367.00
             100.00,367.00 101.00,368.00 101.00,368.00
             101.00,368.00 101.00,367.00 101.00,367.00 Z
           M 116.00,413.00
           C 116.00,413.00 115.00,413.00 115.00,413.00
             115.00,413.00 116.00,414.00 116.00,414.00
             116.00,414.00 116.00,413.00 116.00,413.00 Z
           M 272.00,413.00
           C 272.00,413.00 271.00,413.00 271.00,413.00
             271.00,413.00 272.00,414.00 272.00,414.00
             272.00,414.00 272.00,413.00 272.00,413.00 Z
           M 111.00,419.00
           C 111.00,419.00 110.00,419.00 110.00,419.00
             110.00,419.00 111.00,420.00 111.00,420.00
             111.00,420.00 111.00,419.00 111.00,419.00 Z
           M 190.00,420.00
           C 190.00,420.00 189.00,420.00 189.00,420.00
             189.00,420.00 190.00,421.00 190.00,421.00
             190.00,421.00 190.00,420.00 190.00,420.00 Z
           M 283.00,420.00
           C 283.00,420.00 282.00,420.00 282.00,420.00
             282.00,420.00 283.00,421.00 283.00,421.00
             283.00,421.00 283.00,420.00 283.00,420.00 Z
           M 122.00,422.00
           C 122.00,422.00 121.00,422.00 121.00,422.00
             121.00,422.00 122.00,423.00 122.00,423.00
             122.00,423.00 122.00,422.00 122.00,422.00 Z
           M 282.00,422.00
           C 282.00,422.00 281.00,422.00 281.00,422.00
             281.00,422.00 282.00,423.00 282.00,423.00
             282.00,423.00 282.00,422.00 282.00,422.00 Z
           M 123.00,432.00
           C 123.00,432.00 122.00,432.00 122.00,432.00
             122.00,432.00 123.00,433.00 123.00,433.00
             123.00,433.00 123.00,432.00 123.00,432.00 Z
           M 563.00,462.00
           C 563.00,462.00 562.00,462.00 562.00,462.00
             562.00,462.00 563.00,463.00 563.00,463.00
             563.00,463.00 563.00,462.00 563.00,462.00 Z
           M 554.00,464.00
           C 554.00,464.00 553.00,464.00 553.00,464.00
             553.00,464.00 554.00,465.00 554.00,465.00
             554.00,465.00 554.00,464.00 554.00,464.00 Z
           M 511.00,485.00
           C 511.00,485.00 510.00,485.00 510.00,485.00
             510.00,485.00 511.00,486.00 511.00,486.00
             511.00,486.00 511.00,485.00 511.00,485.00 Z
           M 330.00,492.00
           C 330.00,492.00 329.00,492.00 329.00,492.00
             329.00,492.00 330.00,493.00 330.00,493.00
             330.00,493.00 330.00,492.00 330.00,492.00 Z
           M 342.00,522.00
           C 342.00,522.00 341.00,522.00 341.00,522.00
             341.00,522.00 342.00,523.00 342.00,523.00
             342.00,523.00 342.00,522.00 342.00,522.00 Z
           M 487.00,540.00
           C 487.00,540.00 486.00,540.00 486.00,540.00
             486.00,540.00 487.00,541.00 487.00,541.00
             487.00,541.00 487.00,540.00 487.00,540.00 Z
           M 373.00,593.00
           C 373.00,593.00 372.00,593.00 372.00,593.00
             372.00,593.00 373.00,594.00 373.00,594.00
             373.00,594.00 373.00,593.00 373.00,593.00 Z
           M 386.00,596.00
           C 386.00,596.00 385.00,596.00 385.00,596.00
             385.00,596.00 386.00,597.00 386.00,597.00
             386.00,597.00 386.00,596.00 386.00,596.00 Z
           M 387.00,598.00
           C 387.00,598.00 386.00,598.00 386.00,598.00
             386.00,598.00 387.00,599.00 387.00,599.00
             387.00,599.00 387.00,598.00 387.00,598.00 Z
           M 430.00,611.00
           C 430.00,611.00 429.00,611.00 429.00,611.00
             429.00,611.00 430.00,612.00 430.00,612.00
             430.00,612.00 430.00,611.00 430.00,611.00 Z
           M 468.00,624.00
           C 468.00,624.00 467.00,624.00 467.00,624.00
             467.00,624.00 468.00,625.00 468.00,625.00
             468.00,625.00 468.00,624.00 468.00,624.00 Z
           M 471.00,627.00
           C 471.00,627.00 470.00,627.00 470.00,627.00
             470.00,627.00 471.00,628.00 471.00,628.00
             471.00,628.00 471.00,627.00 471.00,627.00 Z" />
    <path id="logo"
        fill="white" stroke="white" stroke-width="1"
        d="M 396.00,340.00
           C 396.00,340.00 470.00,340.00 470.00,340.00
             501.12,340.05 520.40,370.72 508.91,399.00
             503.51,412.29 491.96,421.42 478.00,424.09
             474.65,424.86 467.29,425.78 464.33,424.09
             461.94,422.53 459.97,418.43 458.58,416.00
             455.00,409.76 448.87,399.57 447.00,393.00
             447.00,393.00 466.00,393.00 466.00,393.00
             480.10,392.80 484.20,379.54 473.96,373.23
             468.12,369.62 449.54,371.02 442.00,371.00
             439.72,371.00 436.35,371.22 434.39,369.98
             431.19,367.95 428.73,361.57 428.00,358.00
             428.00,358.00 461.00,358.00 461.00,358.00
             469.45,358.00 476.67,357.44 483.98,362.80
             496.47,371.99 496.05,392.17 483.98,401.61
             479.35,405.24 474.68,405.87 469.00,406.00
             470.15,407.68 471.14,409.60 473.21,410.31
             479.26,412.39 489.59,403.45 492.79,398.99
             501.46,386.93 500.28,372.70 489.91,362.04
             480.00,351.86 470.81,353.00 458.00,353.00
             458.00,353.00 426.00,353.00 426.00,353.00
             421.79,353.00 406.18,353.73 403.38,351.98
             400.50,350.18 397.37,343.17 396.00,340.00 Z
           M 385.00,358.00
           C 385.00,358.00 410.00,358.00 410.00,358.00
             410.00,358.00 420.62,359.02 420.62,359.02
             420.62,359.02 428.00,371.00 428.00,371.00
             428.00,371.00 407.00,371.00 407.00,371.00
             412.48,376.60 416.56,375.00 424.00,375.00
             432.15,375.00 453.38,374.12 460.00,376.00
             457.51,382.71 458.28,382.36 460.00,389.00
             460.00,389.00 417.00,389.00 417.00,389.00
             424.23,397.01 433.07,390.53 439.61,393.57
             442.53,394.93 446.04,402.95 447.00,406.00
             447.00,406.00 419.00,407.00 419.00,407.00
             409.88,406.98 411.30,406.86 403.70,393.00
             403.70,393.00 385.00,358.00 385.00,358.00 Z" />
</svg>
